<?xml version="1.0" standalone="no"?>
<!DOCTYPE svg PUBLIC "-//W3C//DTD SVG 20010904//EN"
 "http://www.w3.org/TR/2001/REC-SVG-20010904/DTD/svg10.dtd">
<svg version="1.0" xmlns="http://www.w3.org/2000/svg"
 width="562.000000pt" height="332.000000pt" viewBox="0 0 562.000000 332.000000"
 preserveAspectRatio="xMidYMid meet">

<g transform="translate(0.000000,332.000000) scale(0.100000,-0.100000)"
fill="#000000" stroke="none">
<path d="M2050 3088 c-30 -15 -53 -37 -67 -63 l-23 -40 0 -712 c0 -480 3 -721
11 -740 28 -75 85 -105 212 -111 l97 -5 0 638 c0 707 -2 688 65 719 50 24 860
24 910 0 51 -24 65 -64 65 -188 l0 -106 160 0 160 0 0 253 c0 242 -1 254 -23
292 -14 26 -37 48 -67 63 l-44 22 -706 0 -706 0 -44 -22z"/>
<path d="M2590 2270 l0 -210 210 0 210 0 0 210 0 210 -210 0 -210 0 0 -210z"/>
<path d="M3320 1955 c0 -126 -10 -159 -54 -189 -22 -14 -65 -16 -346 -16
l-320 0 0 -165 0 -166 458 3 c403 3 461 5 487 20 52 28 76 63 96 139 17 65 19
97 14 279 l-6 205 -165 3 -164 2 0 -115z"/>
<path d="M2026 1116 c-57 -21 -88 -47 -116 -97 -21 -37 -25 -57 -25 -129 0
-119 25 -162 172 -292 129 -115 160 -156 169 -221 13 -92 -38 -144 -113 -116
-43 17 -71 64 -80 136 l-5 50 -75 -15 -75 -15 6 -55 c12 -103 56 -175 131
-215 33 -18 57 -22 135 -22 88 0 98 2 137 28 91 62 128 167 100 282 -22 88
-53 130 -201 269 -139 131 -156 160 -136 235 8 30 18 43 45 55 31 15 38 15 70
2 38 -16 52 -42 62 -111 l5 -41 71 13 c39 7 73 15 75 18 3 3 -2 34 -11 70 -18
74 -56 133 -102 160 -41 25 -185 31 -239 11z"/>
<path d="M2656 1115 c-62 -22 -89 -46 -121 -110 l-30 -60 -3 -284 c-4 -351 4
-398 78 -472 56 -56 117 -74 226 -67 161 9 234 99 234 290 l0 78 -80 0 -80 0
0 -42 c0 -82 -18 -162 -41 -180 -41 -34 -117 -21 -145 25 -17 29 -19 57 -22
302 -5 342 4 388 76 410 37 11 88 -3 106 -29 9 -15 18 -60 22 -115 l7 -91 78
0 79 0 0 78 c0 152 -53 245 -153 271 -62 15 -183 13 -231 -4z"/>
<path d="M310 625 l0 -495 90 0 90 0 0 225 0 225 83 0 c141 0 204 30 250 119
53 107 30 303 -45 366 -59 50 -86 55 -284 55 l-184 0 0 -495z m325 361 c38
-16 55 -58 55 -136 0 -114 -33 -150 -140 -150 l-60 0 0 150 0 150 55 0 c31 0
71 -6 90 -14z"/>
<path d="M960 625 l0 -495 85 0 85 0 0 495 0 495 -85 0 -85 0 0 -495z"/>
<path d="M1336 894 c52 -125 94 -232 94 -238 0 -6 -43 -123 -95 -260 -72 -188
-92 -252 -83 -258 7 -4 40 -8 73 -8 l60 0 60 165 c32 91 62 165 65 165 3 0 36
-74 74 -165 l69 -165 78 0 c44 0 79 4 79 8 0 5 -45 116 -100 248 l-100 239 71
185 c39 102 82 213 95 248 l24 63 -76 -3 -77 -3 -52 -143 c-28 -79 -55 -143
-60 -143 -4 0 -35 65 -69 145 l-60 146 -82 0 -82 0 94 -226z"/>
<path d="M3180 626 l0 -496 85 0 85 0 0 231 0 230 47 -3 47 -3 60 -227 60
-228 89 0 c67 0 88 3 84 13 -2 6 -32 111 -66 232 -34 121 -64 225 -66 232 -2
6 12 22 31 35 57 37 77 87 82 203 4 95 3 103 -25 155 -23 44 -39 61 -83 85
-55 30 -56 30 -242 33 l-188 4 0 -496z m328 358 c37 -24 55 -79 49 -150 -8
-100 -44 -134 -146 -134 l-61 0 0 148 c0 82 3 152 8 156 11 13 123 -2 150 -20z"/>
<path d="M3870 625 l0 -495 85 0 85 0 0 495 0 495 -85 0 -85 0 0 -495z"/>
<path d="M4210 625 l0 -495 85 0 85 0 2 223 3 222 100 6 c115 6 157 21 202 72
44 50 58 99 57 197 -1 100 -15 149 -57 197 -57 65 -88 73 -294 73 l-183 0 0
-495z m342 347 c20 -19 24 -35 26 -106 6 -134 -21 -166 -139 -166 l-59 0 0
151 0 151 75 -4 c61 -3 79 -7 97 -26z"/>
<path d="M4800 1060 l0 -59 78 -3 77 -3 3 -433 2 -433 83 3 82 3 5 430 5 430
78 3 77 3 0 59 0 60 -245 0 -245 0 0 -60z"/>
</g>
</svg>
